P2
8 7
255
0 0 0 0 0 0 0 0
0 0 90 90 90 0 0 0
0 0 90 90 90 0 0 0
0 0 90 90 90 0 0 0
0 0 45 45 45 0 0 0
0 0 0 0 0 0 0 0
0 0 0 0 0 0 0 0
